<?xml version="1.0" encoding="UTF-8" standalone="no"?>
<!-- Created with Inkscape (http://www.inkscape.org/) -->

<svg
   xmlns:dc="http://purl.org/dc/elements/1.1/"
   xmlns:cc="http://creativecommons.org/ns#"
   xmlns:rdf="http://www.w3.org/1999/02/22-rdf-syntax-ns#"
   xmlns:svg="http://www.w3.org/2000/svg"
   xmlns="http://www.w3.org/2000/svg"
   xmlns:sodipodi="http://sodipodi.sourceforge.net/DTD/sodipodi-0.dtd"
   xmlns:inkscape="http://www.inkscape.org/namespaces/inkscape"
   id="svg2"
   version="1.1"
   inkscape:version="0.48.4 r9939"
   width="40.720001"
   height="39.720001"
   xml:space="preserve"
   sodipodi:docname="GitHub-Mark.eps"><metadata
     id="metadata8"><rdf:RDF><cc:Work
         rdf:about=""><dc:format>image/svg+xml</dc:format><dc:type
           rdf:resource="http://purl.org/dc/dcmitype/StillImage" /><dc:title></dc:title></cc:Work></rdf:RDF></metadata><defs
     id="defs6" /><sodipodi:namedview
     pagecolor="#ffffff"
     bordercolor="#666666"
     borderopacity="1"
     objecttolerance="10"
     gridtolerance="10"
     guidetolerance="10"
     inkscape:pageopacity="0"
     inkscape:pageshadow="2"
     inkscape:window-width="1366"
     inkscape:window-height="711"
     id="namedview4"
     showgrid="false"
     inkscape:zoom="8.5442837"
     inkscape:cx="48.567068"
     inkscape:cy="16.296886"
     inkscape:window-x="0"
     inkscape:window-y="0"
     inkscape:window-maximized="1"
     inkscape:current-layer="g10" /><g
     id="g10"
     inkscape:groupmode="layer"
     inkscape:label="ink_ext_XXXXXX"
     transform="matrix(1.25,0,0,-1.25,0,39.72002)"><path
       inkscape:connector-curvature="0"
       id="path106"
       style="fill:#ffffff;fill-opacity:1;fill-rule:evenodd;stroke:none"
       d="M 16.2865,31.776015 C 7.2933283,31.776015 0,24.482755 0,15.485434 0,8.2881773 4.6665702,2.1829596 11.138974,0.02888286 c 0.814925,-0.15000535 1.111898,0.35301259 1.111898,0.78502799 0,0.38701375 -0.014,1.41105025 -0.022,2.77009875 C 7.698289,2.5999745 6.7423771,5.7680875 6.7423771,5.7680875 6.0014453,7.6501546 4.9335437,8.1511724 4.9335437,8.1511724 3.4546799,9.1612085 5.0455333,9.1412077 5.0455333,9.1412077 6.6803828,9.0262036 7.5403036,7.4621479 7.5403036,7.4621479 8.9931698,4.9730591 11.352952,5.6920848 12.280867,6.1090996 c 0.147986,1.0520375 0.568948,1.7700631 1.033905,2.1770777 -3.6166671,0.4110146 -7.4193169,1.8090647 -7.4193169,8.0512877 0,1.778063 0.6349415,3.233115 1.6768455,4.371155 -0.1679845,0.412015 -0.726933,2.069074 0.1599853,4.311154 0,0 1.3668741,0.438016 4.4785871,-1.670059 1.298881,0.362012 2.692752,0.542019 4.077625,0.549019 1.383873,-0.007 2.776744,-0.187007 4.077624,-0.549019 3.109714,2.108075 4.474588,1.670059 4.474588,1.670059 0.888918,-2.24208 0.32997,-3.899139 0.162985,-4.311154 1.043904,-1.13804 1.673846,-2.593092 1.673846,-4.371155 0,-6.258224 -3.808649,-7.6352729 -7.436315,-8.0382873 0.583946,-0.5030179 1.104898,-1.4970534 1.104898,-3.0161075 0,-2.1780777 -0.02,-3.9351403 -0.02,-4.46915935 0,-0.43601555 0.293973,-0.94303362 1.119897,-0.78402796 C 27.913429,2.1889599 32.576,8.2901774 32.576,15.485434 c 0,8.997321 -7.293328,16.290581 -16.2895,16.290581" /></g></svg>